<svg xmlns="http://www.w3.org/2000/svg" xmlns:xlink="http://www.w3.org/1999/xlink">

  <symbol id="e" fill="none" viewBox="0 0 200 35" xmlns="http://www.w3.org/2000/svg">
    <path
      d="M19.1998 55.2008H40.7998C48.7522 55.2008 55.1998 48.7532 55.1998 40.8008V19.2008C55.1998 11.2484 48.7522 4.80078 40.7998 4.80078H19.1998C11.2474 4.80078 4.7998 11.2484 4.7998 19.2008V40.8008C4.7998 48.7532 11.2474 55.2008 19.1998 55.2008Z"
      stroke-width="4" stroke-miterlimit="10" />
    <path
      d="M30 18C26.8174 18 23.7652 19.2643 21.5147 21.5147C19.2643 23.7652 18 26.8174 18 30C18 33.1826 19.2643 36.2348 21.5147 38.4853C23.7652 40.7357 26.8174 42 30 42C33.1826 42 36.2348 40.7357 38.4853 38.4853C40.7357 36.2348 42 33.1826 42 30C42 26.8174 40.7357 23.7652 38.4853 21.5147C36.2348 19.2643 33.1826 18 30 18Z"
      stroke-width="4" stroke-miterlimit="10" />
    <path
      d="M44.4 13.1992C43.7635 13.1992 43.153 13.4521 42.7029 13.9022C42.2529 14.3522 42 14.9627 42 15.5992C42 16.2357 42.2529 16.8462 42.7029 17.2963C43.153 17.7464 43.7635 17.9992 44.4 17.9992C45.0365 17.9992 45.647 17.7464 46.0971 17.2963C46.5471 16.8462 46.8 16.2357 46.8 15.5992C46.8 14.9627 46.5471 14.3522 46.0971 13.9022C45.647 13.4521 45.0365 13.1992 44.4 13.1992Z" />
  </symbol>

  <symbol id="logo" xmlns="http://www.w3.org/2000/svg" viewBox="0 0 137 72" fill="none">
    <path
      d="M4.96094 61.5078H8.10156C8.59375 61.5078 8.84375 61.4688 9.07031 61.375C9.60156 61.1562 10.0078 60.6875 10.0078 60.0312C10.0078 59.3828 9.61719 58.9062 9.07031 58.6797C8.84375 58.5859 8.60156 58.5391 8.09375 58.5391H4.96094V61.5078ZM4.96094 68H3.09375V56.7969H8.32812C9.19531 56.7969 9.76562 56.9453 10.25 57.2266C11.2188 57.75 11.8516 58.7578 11.8516 60.0234C11.8516 61.2578 11.2188 62.2812 10.2422 62.8125C9.75781 63.0859 9.19531 63.2422 8.32812 63.2422H4.96094V68ZM18.8687 56.7969H20.9547L24.0016 62.5391L26.9547 56.7969H29.0406L24.7359 64.8984C24.2047 65.8984 23.8609 66.4922 23.3609 67.0156C22.7828 67.6094 22.0797 68.0234 21.1422 68.0234C20.4781 68.0234 19.8297 67.8125 19.2672 67.4219L20.2203 65.8359C20.5016 66.0391 20.8297 66.1484 21.1656 66.1484C21.8219 66.1484 22.2203 65.7578 22.7281 64.8438C22.7359 64.8125 22.9859 64.3672 22.9859 64.3672L18.8687 56.7969ZM36.6281 56.7969H37.6359L42.4875 62.6328L47.3312 56.7969H48.3469V68H46.4719V60.3516L42.4875 65.2188L38.4953 60.3516V68H36.6281V56.7969ZM56.325 56.7891H65.7938V58.5391H61.9891V68H60.1141V58.5391H56.325V56.7891ZM81.5609 68V60.1797L74.7797 68H73.7641V56.7969H75.6391V64.6094C77.8969 62.0078 80.1547 59.3984 82.4203 56.7969H83.4359V68H81.5609ZM100.773 64.6719C100.773 65.9844 100.117 67.0234 99.1172 67.5703C98.625 67.8438 98.0391 68 97.1641 68H92.0312V56.7969H99.7578V58.5391H93.8984V61.3516H97.1641C98.0391 61.3516 98.625 61.5078 99.1094 61.7891C100.117 62.3281 100.773 63.3984 100.773 64.6719ZM98.9219 64.6719C98.9219 63.9688 98.5 63.4609 97.9375 63.2188C97.7031 63.125 97.4453 63.0781 96.9453 63.0781H93.8984V66.2656H96.9375C97.4531 66.2656 97.7109 66.2188 97.9375 66.1172C98.5078 65.8828 98.9219 65.3672 98.9219 64.6719ZM108.853 56.7969H116.502V58.5312H110.728V60.9922H115.205V62.7109H110.728V66.2656H116.502V68H108.853V56.7969ZM124.097 56.7891H133.566V58.5391H129.761V68H127.886V58.5391H124.097V56.7891Z"
      fill="white" />
    <mask id="mask0_1_165" style="mask-type:luminance" maskUnits="userSpaceOnUse" x="0" y="0"
      width="137" height="48">
      <path d="M137 0H0V48H137V0Z" fill="white" />
    </mask>
    <g mask="url(#mask0_1_165)">
      <path
        d="M0.153499 27.9142C0.397899 27.8562 24.8152 22.0349 43.1998 13.8808C45.2449 12.9738 46.9008 12.4361 48.2956 12.1827C46.7329 13.7573 37.54 17.6827 44.882 18.3783C51.6186 19.0172 40.5214 27.0108 35.4343 29.917C22.0532 34.1597 13.3687 35.8259 13.2126 35.8555L13.3967 36.8371C13.4423 36.8284 14.2201 36.6793 15.6276 36.3679C23.0039 34.7354 47.7648 28.6221 76.1721 14.6517C80.1558 12.6925 83.4072 11.606 86.1436 11.2028C85.3414 15.3186 76.0532 24.42 90.8867 26.7182C104.416 28.8142 77.2846 34.1361 67.1729 36.8458C65.7145 37.2367 64.6097 37.5733 64.0327 37.8377C59.5683 39.8854 111.467 38.0435 134.676 37.9502C135.433 37.9769 136.206 37.9922 137 37.9922V36.9933C116.27 36.9933 108.928 27.5136 103.028 19.8966C96.8975 11.9809 92.0551 5.72774 75.7316 13.7553C71.9386 15.6195 68.1041 17.3982 64.2312 19.0902C60.8086 17.8722 58.7358 16.1204 56.9198 14.5827C53.5385 11.7195 51.0952 9.65046 42.9304 13.2725C24.6028 21.4006 0.243734 27.2086 0 27.2662L0.153499 27.9142Z"
        fill="#FDFDFD" />
    </g>
  </symbol>

  <symbol id='play' xmlns="http://www.w3.org/2000/svg" viewBox="0 0 22 22" fill="none">
    <path
      d="M8.24267 3.65572C7.96389 3.49647 7.64819 3.41323 7.32714 3.41432C7.00609 3.4154 6.69096 3.50078 6.41326 3.6619C6.13557 3.82302 5.90506 4.05424 5.74479 4.33242C5.58451 4.6106 5.5001 4.926 5.5 5.24705V16.7549C5.5001 17.0759 5.58451 17.3913 5.74479 17.6695C5.90506 17.9477 6.13557 18.1789 6.41326 18.34C6.69096 18.5012 7.00609 18.5865 7.32714 18.5876C7.64819 18.5887 7.96389 18.5055 8.24267 18.3462L18.3113 12.5914C18.5917 12.431 18.8248 12.1993 18.9869 11.9199C19.1489 11.6404 19.2343 11.3231 19.2343 11C19.2343 10.677 19.1489 10.3597 18.9869 10.0802C18.8248 9.80079 18.5917 9.56913 18.3113 9.40872L8.24267 3.65572Z"
      fill="#1A3E3E" />
  </symbol>

  <symbol id='people' xmlns="http://www.w3.org/2000/svg" viewBox="0 0 36 36" fill="none">
    <g clip-path="url(#clip0_1_37)">
      <path
        d="M12.0345 24.9276H15.678V25.23H12.0345V24.9276ZM28.0395 24.9276H36.0001V25.23H28.0395V24.9276ZM27.8446 13.8785C28.1761 14.3344 28.4439 14.7347 28.6571 15.0913C28.726 13.9452 28.9244 13.2457 29.1207 12.8438V16.0015C29.223 16.2605 29.2964 16.5328 29.3004 16.8194C29.3007 17.0228 29.2609 17.2095 29.1814 17.3774C29.164 17.415 29.1427 17.4512 29.1207 17.4869V23.3885C29.1207 23.6191 29.2123 23.8402 29.3753 24.0033C29.5384 24.1663 29.7595 24.2579 29.9901 24.2579C30.2206 24.2579 30.4418 24.1663 30.6048 24.0033C30.7678 23.8402 30.8594 23.6191 30.8594 23.3885V17.0418H31.1852V23.3885C31.1852 23.6191 31.2768 23.8402 31.4398 24.0032C31.6028 24.1662 31.8239 24.2578 32.0545 24.2578C32.285 24.2578 32.5061 24.1662 32.6691 24.0032C32.8321 23.8402 32.9237 23.6191 32.9237 23.3885V16.2883C30.9405 14.1585 29.5848 11.808 29.2571 11.2165C29.1947 11.2373 29.1291 11.2637 29.0609 11.2981C28.6828 11.4855 28.2751 11.8956 27.9898 12.6226C27.8698 12.9257 27.7665 13.2862 27.6864 13.7172C27.7465 13.7632 27.7997 13.8175 27.8446 13.8785ZM27.5091 16.3365L27.5105 16.3966L27.5426 16.4034C27.5316 16.381 27.5204 16.3587 27.5091 16.3365Z"
        fill="#45766A" />
      <path
        d="M30.4385 12.6932C31.046 13.6196 31.8962 14.7997 32.9236 15.9309V12.8455C32.9653 12.9309 33.0073 13.029 33.0488 13.1435C33.2469 13.6928 33.4136 14.5941 33.413 16.0005C33.413 16.3882 33.4006 16.8142 33.3732 17.2818C33.3687 17.3584 33.3799 17.435 33.4061 17.5071C33.4324 17.5792 33.4731 17.6451 33.5257 17.7009C33.5784 17.7567 33.6419 17.8011 33.7123 17.8314C33.7827 17.8617 33.8586 17.8773 33.9353 17.8772C34.0787 17.877 34.2166 17.8221 34.3209 17.7236C34.4252 17.6252 34.4879 17.4906 34.4963 17.3475C34.5231 16.899 34.537 16.4498 34.5379 16.0005C34.5351 13.8787 34.1963 12.7042 33.7339 11.998C33.5031 11.6477 33.2328 11.4227 32.9832 11.298C32.7339 11.1726 32.5148 11.1473 32.3903 11.1478L32.388 11.1479C32.3853 11.1478 32.383 11.147 32.3802 11.147H29.664C29.6608 11.147 29.6576 11.148 29.6545 11.148H29.6539C29.603 11.1482 29.5522 11.1519 29.5018 11.159C29.6579 11.4375 29.9781 11.9915 30.4385 12.6932Z"
        fill="#45766A" />
      <path
        d="M31.022 10.7463C31.8957 10.7463 32.6039 10.038 32.6039 9.16439C32.6039 8.29075 31.8957 7.58252 31.022 7.58252C30.1484 7.58252 29.4402 8.29075 29.4402 9.16439C29.4402 10.038 30.1484 10.7463 31.022 10.7463Z"
        fill="#45766A" />
      <path
        d="M4.76545 18.8765V33.0221C4.76545 33.8483 5.43523 34.5176 6.26094 34.5176C7.0869 34.5176 7.75669 33.8483 7.75669 33.0221V22.1023H8.31736V33.0221C8.31736 33.8483 8.98715 34.5176 9.81286 34.5176C10.6388 34.5176 11.3086 33.8483 11.3086 33.0221V14.8821C11.3893 15.0491 11.4612 15.2202 11.5239 15.3947C11.8648 16.3398 12.1516 17.8904 12.1506 20.3107C12.1506 20.9777 12.1291 21.7105 12.0824 22.5153C12.0512 23.0487 12.4585 23.5063 12.9922 23.5378C13.2484 23.5527 13.5001 23.4652 13.6918 23.2946C13.8835 23.124 13.9996 22.8842 14.0146 22.628C14.0635 21.7892 14.0862 21.0193 14.0862 20.3108C14.0813 16.6596 13.4982 14.6391 12.7031 13.424C12.3056 12.8208 11.8407 12.434 11.4113 12.2198C10.9951 12.01 10.6293 11.9637 10.4116 11.9615C10.3992 11.961 10.3866 11.9596 10.3738 11.9596H9.80597L9.50863 14.2844L8.32922 12.8631L9.14453 11.9596H6.92928L7.74459 12.8631L6.56517 14.2844L6.26784 11.9596H5.70027C5.6641 11.9596 5.62841 11.9621 5.59333 11.9662C5.16487 11.972 4.72468 11.9968 4.29828 12.0083C4.17755 12.0115 4.05731 12.0145 3.93973 12.0144C3.24902 12.0216 2.65036 11.9236 2.37238 11.7514C2.22855 11.666 2.15017 11.5878 2.07577 11.4533C2.00392 11.3178 1.93594 11.0979 1.93545 10.7245C1.93473 10.3213 2.02122 9.74855 2.24912 9.00195C2.32378 8.75641 2.29787 8.49127 2.17707 8.26483C2.05628 8.03839 1.85049 7.8692 1.60497 7.79447C1.59844 7.79241 1.59203 7.79145 1.5855 7.78963V5.26786C1.84981 4.84375 2.52419 4.08639 3.70228 4.78871C6.8942 6.69138 7.08932 2.24819 7.08932 2.24819C7.08932 2.24819 5.41588 3.17576 4.20622 2.08707C3.18237 1.16567 1.94235 1.68824 1.58538 1.87066V1.48224H1.1418V7.76991C0.968562 7.80288 0.807638 7.88258 0.676429 8.0004C0.545221 8.11822 0.448723 8.26967 0.397374 8.43837C0.132096 9.31283 0.000969233 10.0581 1.5072e-06 10.7243C-0.000482356 11.3344 0.115524 11.8884 0.366286 12.3608C0.741521 13.0793 1.40792 13.5099 2.0419 13.7068C2.68363 13.9117 3.3297 13.9475 3.93973 13.9496C3.97312 13.9496 4.00614 13.9488 4.03941 13.9486C4.28969 13.9464 4.53355 13.9386 4.76532 13.9294L4.76545 18.8765Z"
        fill="#45766A" />
      <path
        d="M8.48077 11.2336C9.77292 11.0216 10.7586 9.90048 10.7586 8.54857C10.7586 7.04521 9.54018 5.82684 8.03682 5.82684C6.5337 5.82684 5.31509 7.04521 5.31509 8.54857C5.31509 9.90048 6.30096 11.0216 7.59288 11.2336C7.73743 11.2574 7.88562 11.2703 8.03682 11.2703C8.18803 11.2703 8.33633 11.2575 8.48077 11.2336ZM22.223 17.1173C22.101 15.8997 21.8281 15.1248 21.4882 14.6051C21.2574 14.2548 20.9871 14.0298 20.7376 13.9053C20.4881 13.7796 20.2691 13.7546 20.1444 13.7551H20.1442C20.1409 13.7551 20.138 13.7541 20.1347 13.7541H19.6504C19.8713 14.6864 19.9292 15.5452 19.9292 16.1876C19.9292 16.5744 19.9084 16.8825 19.8898 17.082V18.3735H17.6634V17.0837C17.6363 16.7858 17.6231 16.4868 17.6237 16.1877C17.6237 15.5452 17.6817 14.6865 17.9027 13.7542H17.4184C17.4152 13.7542 17.412 13.7552 17.4089 13.7552H17.4083C17.2838 13.7547 17.0645 13.7795 16.8153 13.9054C16.437 14.0928 16.0295 14.5031 15.7442 15.2299C15.4554 15.9597 15.2615 17.0146 15.2605 18.6077C15.2608 19.0195 15.2737 19.4672 15.3026 19.9549C15.311 20.098 15.3738 20.2325 15.478 20.3309C15.5823 20.4293 15.7202 20.4842 15.8635 20.4844C15.8747 20.4844 15.8858 20.4839 15.8971 20.4834C16.046 20.4747 16.1853 20.4071 16.2844 20.2956C16.3835 20.1842 16.4343 20.0379 16.4256 19.889C16.3996 19.4624 16.3863 19.0351 16.3856 18.6077C16.3831 16.9048 16.6313 15.9497 16.8754 15.4508V25.9958C16.8754 26.2264 16.967 26.4475 17.13 26.6105C17.293 26.7735 17.5141 26.8651 17.7447 26.8651C17.9752 26.8651 18.1963 26.7735 18.3593 26.6105C18.5224 26.4475 18.6139 26.2264 18.6139 25.9958V19.6491H18.9397V25.9958C18.9397 26.2264 19.0313 26.4475 19.1943 26.6106C19.3574 26.7736 19.5785 26.8652 19.8091 26.8652C20.0397 26.8652 20.2608 26.7736 20.4238 26.6106C20.5869 26.4475 20.6785 26.2264 20.6785 25.9958V15.4532C20.7201 15.5385 20.7621 15.6364 20.8034 15.7506C21.0017 16.3002 21.1683 17.2012 21.1678 18.608C21.1678 18.9954 21.1552 19.4215 21.1281 19.8892C21.1162 20.0941 21.2166 20.278 21.3747 20.3857C21.431 19.3377 21.5879 18.4955 21.8512 17.8295C21.963 17.5435 22.0904 17.3096 22.223 17.1173Z"
        fill="#45766A" />
      <path
        d="M17.8344 16.1876C17.8344 16.5101 17.8493 16.7758 17.865 16.9674H19.688C19.7035 16.7758 19.7184 16.5101 19.7184 16.1876C19.7184 15.5464 19.6582 14.6844 19.4325 13.7541H18.1203C17.8946 14.6846 17.8344 15.5466 17.8344 16.1876Z"
        fill="#45766A" />
      <path
        d="M18.7765 13.3536C19.6502 13.3536 20.3584 12.6453 20.3584 11.7717C20.3584 10.898 19.6502 10.1898 18.7765 10.1898C17.9029 10.1898 17.1947 10.898 17.1947 11.7717C17.1947 12.6453 17.9029 13.3536 18.7765 13.3536Z"
        fill="#45766A" />
      <path
        d="M18.775 18.1039C18.9933 18.1039 19.1704 17.9269 19.1704 17.7085C19.1704 17.4901 18.9933 17.313 18.775 17.313C18.5566 17.313 18.3795 17.4901 18.3795 17.7085C18.3795 17.9269 18.5566 18.1039 18.775 18.1039Z"
        fill="#45766A" />
      <path
        d="M24.2881 13.6251H26.4501C26.1707 13.1773 25.6751 12.8783 25.1082 12.8783C24.2346 12.8783 23.5264 13.5864 23.5264 14.46C23.5264 15.3338 24.2346 16.042 25.1082 16.042C25.6971 16.042 26.2099 15.7195 26.4822 15.2421H24.288V13.6251H24.2881Z"
        fill="#45766A" />
      <path
        d="M25.6357 14.8671C25.8751 14.8671 26.0692 14.673 26.0692 14.4335C26.0692 14.1941 25.8751 14 25.6357 14C25.3962 14 25.2021 14.1941 25.2021 14.4335C25.2021 14.673 25.3962 14.8671 25.6357 14.8671Z"
        fill="#45766A" />
      <path
        d="M29.0585 16.8226C29.0535 16.4619 28.9287 16.1174 28.7053 15.673C28.4787 15.231 28.1392 14.6951 27.649 14.0208C27.6056 13.9611 27.5508 13.9105 27.4878 13.8719C27.4248 13.8333 27.3548 13.8075 27.2818 13.796C27.2088 13.7845 27.1343 13.7875 27.0625 13.8048C26.9907 13.8221 26.9229 13.8534 26.8632 13.8969C26.8035 13.9403 26.7529 13.9951 26.7144 14.0581C26.6758 14.1211 26.6501 14.191 26.6386 14.264C26.627 14.3369 26.63 14.4114 26.6473 14.4832C26.6646 14.555 26.6959 14.6227 26.7393 14.6824C27.2077 15.3259 27.519 15.8229 27.704 16.1853C27.8226 16.4121 27.8849 16.5881 27.9137 16.6987C27.7538 16.6944 27.497 16.6453 27.2486 16.5864C27.1147 16.5554 26.9812 16.5229 26.8515 16.4962C26.7424 16.4744 26.6398 16.4553 26.5219 16.4483C26.5035 16.4463 26.4854 16.4426 26.4666 16.4426H23.7503C23.7471 16.4426 23.7441 16.4435 23.7408 16.4435H23.7402C23.6154 16.4431 23.3965 16.4681 23.1471 16.5938C22.769 16.7814 22.3614 17.1915 22.076 17.9182C21.7874 18.648 21.5935 19.7032 21.5925 21.2961C21.5925 21.7081 21.6058 22.1555 21.6345 22.6433C21.6432 22.7922 21.7107 22.9315 21.8222 23.0306C21.9336 23.1297 22.0799 23.1805 22.2288 23.1718C22.3777 23.1631 22.517 23.0956 22.6161 22.9842C22.7153 22.8727 22.7661 22.7265 22.7574 22.5776C22.7316 22.1509 22.7183 21.7235 22.7175 21.2961C22.7151 19.5934 22.9634 18.6386 23.2071 18.1394V28.6842C23.2071 29.1645 23.5964 29.5534 24.0764 29.5534C24.5564 29.5534 24.9457 29.1645 24.9457 28.6842V22.3377H25.2714V28.6842C25.2714 28.9147 25.363 29.1358 25.526 29.2988C25.689 29.4619 25.9101 29.5534 26.1407 29.5534C26.2549 29.5535 26.3679 29.531 26.4734 29.4873C26.5789 29.4437 26.6748 29.3796 26.7555 29.2989C26.8362 29.2182 26.9003 29.1224 26.944 29.0169C26.9877 28.9114 27.0102 28.7984 27.0102 28.6842V17.6855C27.0766 17.7009 27.1447 17.7162 27.2155 17.7313C27.444 17.7789 27.6875 17.8228 27.9448 17.824C28.1606 17.821 28.406 17.799 28.6582 17.6312C28.7894 17.541 28.8945 17.4178 28.9628 17.274C29.032 17.1275 29.0587 16.9713 29.0585 16.8226Z"
        fill="#45766A" />
    </g>
    <symbol>
      <clipPath id="clip0_1_37">
        <rect fill="white" />
      </clipPath>
    </symbol>
  </symbol>
  <symbol id='shield' xmlns="http://www.w3.org/2000/svg" viewBox="0 0 36 36" fill="none">
    <path
      d="M32.4036 7.06108C32.3342 6.74833 32.2162 6.44843 32.0537 6.17233C32.0537 6.17233 28.151 0 17.9992 0C7.8505 0 3.94482 6.17233 3.94482 6.17233C3.80108 6.39885 3.6438 6.79844 3.59413 7.06108C3.59413 7.06108 2.83934 11.0638 4.08855 16.8012C5.23919 22.0758 8.41942 29.6365 17.0541 35.6997C17.3309 35.8948 17.6613 35.9996 18 35.9996C18.3387 35.9996 18.6691 35.8948 18.9459 35.6997C27.5776 29.6358 30.7593 22.0758 31.9092 16.8012C33.1622 11.0638 32.4036 7.06108 32.4036 7.06108ZM28.5822 16.0758C28.5499 16.227 28.51 16.385 28.4723 16.5401H17.9992V32.1741C11.2625 27.0613 8.57896 20.9793 7.5254 16.5401H17.9992V3.40524C25.2274 3.40524 28.446 7.04453 29.0842 7.87382C29.1895 8.6384 29.5176 11.79 28.5822 16.0758Z"
      fill="#6276AA" />
  </symbol>

  <symbol id='receipt' xmlns="http://www.w3.org/2000/svg" viewBox="0 0 36 36" fill="none">
    <path
      d="M26.3006 9.44613L19.0547 4.83511V1.05469C19.0547 0.472219 18.5825 0 18 0C17.4175 0 16.9453 0.472219 16.9453 1.05469V4.83511L9.6994 9.44613C9.54971 9.54139 9.42647 9.67288 9.34109 9.82841C9.25571 9.98395 9.21094 10.1585 9.21094 10.3359V34.9453C9.21094 35.5278 9.68316 36 10.2656 36H25.7344C26.3168 36 26.7891 35.5278 26.7891 34.9453V10.3359C26.7891 9.97538 26.6048 9.63977 26.3006 9.44613ZM18 17.2969C16.0615 17.2969 14.4844 15.7198 14.4844 13.7812C14.4844 12.21 15.5205 10.8765 16.9453 10.4275V11.3203C16.9453 11.9028 17.4175 12.375 18 12.375C18.5825 12.375 19.0547 11.9028 19.0547 11.3203V10.4275C20.4795 10.8765 21.5156 12.21 21.5156 13.7812C21.5156 15.7198 19.9385 17.2969 18 17.2969Z"
      fill="#F2BE22" />
  </symbol>

  <symbol id="star" xmlns="http://www.w3.org/2000/svg" viewBox="0 0 24 24" fill="none">
    <path
      d="M12 17.27L16.15 19.78C16.91 20.24 17.84 19.56 17.64 18.7L16.54 13.98L20.21 10.8C20.88 10.22 20.52 9.12 19.64 9.04999L14.81 8.64L12.92 4.17999C12.58 3.36999 11.42 3.36999 11.08 4.17999L9.19 8.62999L4.36 9.03999C3.48 9.10999 3.12 10.21 3.79 10.79L7.46 13.97L6.36 18.69C6.16 19.55 7.09 20.23 7.85 19.77L12 17.27Z"
      fill="#F2BE22" />
  </symbol>


  <symbol id="arrow" xmlns="http://www.w3.org/2000/svg" viewBox="0 0 6 10" >
    <path
      d="M5.7154 4.6098L1.26527 0.159755C1.16235 0.0567475 1.02495 0 0.878448 0C0.731945 0 0.594548 0.0567475 0.491622 0.159755L0.163901 0.487394C-0.0493491 0.700889 -0.0493491 1.04788 0.163901 1.26105L3.90078 4.99793L0.159755 8.73895C0.0568288 8.84196 0 8.97928 0 9.1257C0 9.27228 0.0568288 9.4096 0.159755 9.51269L0.487476 9.84024C0.590483 9.94325 0.727799 10 0.874302 10C1.0208 10 1.1582 9.94325 1.26113 9.84024L5.7154 5.38613C5.81857 5.2828 5.87524 5.14484 5.87491 4.99817C5.87524 4.85094 5.81857 4.71305 5.7154 4.6098Z"
       />
  </symbol>

  <symbol id="telegram" xmlns="http://www.w3.org/2000/svg" 
    viewBox="0 0 32 32" >
    <path
      d="M16 2.66675C8.63999 2.66675 2.66666 8.64008 2.66666 16.0001C2.66666 23.3601 8.63999 29.3334 16 29.3334C23.36 29.3334 29.3333 23.3601 29.3333 16.0001C29.3333 8.64008 23.36 2.66675 16 2.66675ZM22.1867 11.7334C21.9867 13.8401 21.12 18.9601 20.68 21.3201C20.4933 22.3201 20.12 22.6534 19.7733 22.6934C19 22.7601 18.4133 22.1868 17.6667 21.6934C16.4933 20.9201 15.8267 20.4401 14.6933 19.6934C13.3733 18.8268 14.2267 18.3468 14.9867 17.5734C15.1867 17.3734 18.6 14.2668 18.6667 13.9867C18.6759 13.9443 18.6747 13.9003 18.6631 13.8585C18.6515 13.8167 18.6298 13.7783 18.6 13.7468C18.52 13.6801 18.4133 13.7067 18.32 13.7201C18.2 13.7467 16.3333 14.9868 12.6933 17.4401C12.16 17.8001 11.68 17.9868 11.2533 17.9734C10.7733 17.9601 9.86666 17.7068 9.18666 17.4801C8.34666 17.2134 7.69332 17.0668 7.74666 16.6001C7.77332 16.3601 8.10666 16.1201 8.73332 15.8668C12.6267 14.1734 15.2133 13.0534 16.5067 12.5201C20.2133 10.9734 20.9733 10.7067 21.48 10.7067C21.5867 10.7067 21.84 10.7334 22 10.8667C22.1333 10.9734 22.1733 11.1201 22.1867 11.2268C22.1733 11.3068 22.2 11.5468 22.1867 11.7334Z"
      />
  </symbol>

  <symbol id="vk" xmlns="http://www.w3.org/2000/svg"  viewBox="0 0 32 32"
    >
    <path
      d="M16.36 2.99976C8.98138 2.99976 3 8.98114 3 16.3598C3 23.7384 8.98138 29.7198 16.36 29.7198C23.7386 29.7198 29.72 23.7384 29.72 16.3598C29.72 8.98114 23.7386 2.99976 16.36 2.99976ZM21.498 18.0729C21.498 18.0729 22.6796 19.2391 22.9704 19.7805C22.9788 19.7916 22.9829 19.8027 22.9857 19.8083C23.104 20.0073 23.1318 20.1618 23.0734 20.2773C22.976 20.4693 22.642 20.564 22.5279 20.5723H20.4404C20.2956 20.5723 19.9922 20.5348 19.6248 20.2815C19.3423 20.0839 19.064 19.7596 18.7926 19.4437C18.3877 18.9733 18.037 18.5669 17.6835 18.5669C17.6386 18.5669 17.594 18.5739 17.5513 18.5878C17.2841 18.6741 16.9417 19.0554 16.9417 20.0713C16.9417 20.3886 16.6912 20.5709 16.5145 20.5709H15.5584C15.2327 20.5709 13.5363 20.4568 12.0333 18.8717C10.1935 16.9303 8.53744 13.0365 8.52352 13.0003C8.41915 12.7484 8.63486 12.6134 8.87005 12.6134H10.9784C11.2595 12.6134 11.3514 12.7846 11.4154 12.9363C11.4906 13.113 11.7661 13.8158 12.2184 14.6063C12.9518 15.8949 13.4013 16.4182 13.7618 16.4182C13.8293 16.4174 13.8957 16.4002 13.9552 16.3681C14.4256 16.1065 14.3379 14.4295 14.317 14.0816C14.317 14.0162 14.3156 13.3315 14.0749 13.0031C13.9023 12.7651 13.6087 12.6746 13.4305 12.6412C13.5026 12.5417 13.5976 12.4611 13.7075 12.406C14.0303 12.2446 14.6121 12.2209 15.1896 12.2209H15.5111C16.1373 12.2293 16.2988 12.2696 16.5256 12.3267C16.9849 12.4366 16.9946 12.7331 16.9542 13.7476C16.9417 14.0357 16.9292 14.3613 16.9292 14.7454C16.9292 14.8289 16.925 14.918 16.925 15.0126C16.9111 15.5289 16.8944 16.1148 17.259 16.3556C17.3066 16.3854 17.3615 16.4013 17.4177 16.4015C17.5443 16.4015 17.9256 16.4015 18.9582 14.6299C19.2767 14.0597 19.5534 13.4671 19.7863 12.8569C19.8072 12.8207 19.8684 12.7094 19.9408 12.6663C19.9942 12.639 20.0534 12.6252 20.1133 12.6259H22.5919C22.8619 12.6259 23.047 12.6663 23.0817 12.7706C23.143 12.9363 23.0706 13.4414 21.9392 14.9737L21.434 15.6403C20.4084 16.9846 20.4084 17.0528 21.498 18.0729Z"
       />
  </symbol>

  <symbol id="pinterest" xmlns="http://www.w3.org/2000/svg" 
    viewBox="0 0 32 32" >
    <path
      d="M12.0533 28.7201C13.3333 29.1068 14.6267 29.3334 16 29.3334C19.5362 29.3334 22.9276 27.9287 25.4281 25.4282C27.9286 22.9277 29.3333 19.5363 29.3333 16.0001C29.3333 14.2491 28.9885 12.5153 28.3184 10.8976C27.6483 9.27996 26.6662 7.81011 25.4281 6.57199C24.19 5.33388 22.7201 4.35175 21.1025 3.68169C19.4848 3.01163 17.751 2.66675 16 2.66675C14.249 2.66675 12.5152 3.01163 10.8976 3.68169C9.27989 4.35175 7.81003 5.33388 6.57192 6.57199C4.07143 9.07248 2.66667 12.4639 2.66667 16.0001C2.66667 21.6668 6.22667 26.5334 11.2533 28.4534C11.1333 27.4134 11.0133 25.6934 11.2533 24.5068L12.7867 17.9201C12.7867 17.9201 12.4 17.1468 12.4 15.9201C12.4 14.0801 13.5467 12.7067 14.8533 12.7067C16 12.7067 16.5333 13.5468 16.5333 14.6268C16.5333 15.7734 15.7733 17.4134 15.3867 18.9868C15.16 20.2934 16.08 21.4401 17.4133 21.4401C19.7867 21.4401 21.6267 18.9068 21.6267 15.3334C21.6267 12.1334 19.3333 9.94675 16.04 9.94675C12.28 9.94675 10.0667 12.7468 10.0667 15.6934C10.0667 16.8401 10.44 18.0001 11.0533 18.7601C11.1733 18.8401 11.1733 18.9468 11.1333 19.1468L10.7467 20.6001C10.7467 20.8268 10.6 20.9068 10.3733 20.7468C8.66667 20.0001 7.68001 17.5734 7.68001 15.6134C7.68001 11.4001 10.6667 7.57342 16.4267 7.57342C21.0133 7.57342 24.5867 10.8667 24.5867 15.2401C24.5867 19.8268 21.7467 23.5068 17.68 23.5068C16.3867 23.5068 15.12 22.8134 14.6667 22.0001L13.7733 25.1601C13.4667 26.3068 12.6267 27.8401 12.0533 28.7601V28.7201Z"
       />
  </symbol>

  <symbol id="skype" xmlns="http://www.w3.org/2000/svg"  viewBox="0 0 32 32" >
    <path d="M24 8C26.76 10.72 27.8 14.52 27.1467 18.0667C27.6933 19.0267 28 20.1467 28 21.3333C28 23.1014 27.2976 24.7971 26.0474 26.0474C24.7971 27.2976 23.1014 28 21.3333 28C20.1467 28 19.0267 27.6933 18.0667 27.1467C14.52 27.8 10.72 26.76 8 24C5.24 21.28 4.2 17.48 4.85333 13.9333C4.30667 12.9733 4 11.8533 4 10.6667C4 8.89856 4.70238 7.20286 5.95262 5.95262C7.20286 4.70238 8.89856 4 10.6667 4C11.8533 4 12.9733 4.30667 13.9333 4.85333C17.48 4.2 21.28 5.24 24 8ZM16.0533 22.88C19.88 22.88 21.7867 21.04 21.7867 18.56C21.7867 16.9733 21.04 15.28 18.1467 14.6267L15.4933 14.04C14.48 13.8133 13.3333 13.5067 13.3333 12.56C13.3333 11.6 14.1333 10.9333 15.6 10.9333C18.5733 10.9333 18.2933 12.9733 19.7733 12.9733C20.5467 12.9733 21.2133 12.52 21.2133 11.7333C21.2133 9.90667 18.2933 8.53333 15.8133 8.53333C13.1333 8.53333 10.2667 9.68 10.2667 12.72C10.2667 14.1867 10.7867 15.7467 13.6667 16.4667L17.2533 17.3733C18.3333 17.64 18.6 18.24 18.6 18.8C18.6 19.7067 17.6933 20.6 16.0533 20.6C12.84 20.6 13.28 18.1333 11.56 18.1333C10.7867 18.1333 10.2267 18.6667 10.2267 19.4267C10.2267 20.9067 12 22.88 16.0533 22.88Z" />
  </symbol>
  
</svg>